<mxfile host="app.diagrams.net" agent="Mozilla/5.0 (Windows NT 10.0; Win64; x64) AppleWebKit/537.36 (KHTML, like Gecko) Chrome/135.0.0.0 Safari/537.36" version="26.2.13">
  <diagram name="Page-1" id="58cdce13-f638-feb5-8d6f-7d28b1aa9fa0">
    <mxGraphModel grid="1" page="1" gridSize="10" guides="1" tooltips="1" connect="1" arrows="1" fold="1" pageScale="1" pageWidth="1100" pageHeight="850" background="none" math="0" shadow="0">
      <root>
        <mxCell id="0" />
        <mxCell id="1" parent="0" />
        <mxCell id="EPDN5h1PnaRbW-wHKBpo-1" value="" style="ellipse;html=1;shape=startState;fillColor=#000000;strokeColor=#ff0000;rounded=1;shadow=0;comic=0;labelBackgroundColor=none;fontFamily=Verdana;fontSize=12;fontColor=#000000;align=center;direction=south;" vertex="1" parent="1">
          <mxGeometry x="750" y="35" width="30" height="30" as="geometry" />
        </mxCell>
        <mxCell id="EPDN5h1PnaRbW-wHKBpo-2" value="Canceled&lt;span style=&quot;white-space: pre;&quot;&gt;&#x9;&lt;/span&gt;" style="rounded=1;whiteSpace=wrap;html=1;arcSize=24;fillColor=#ffffc0;strokeColor=#ff0000;shadow=0;comic=0;labelBackgroundColor=none;fontFamily=Verdana;fontSize=12;fontColor=#000000;align=center;" vertex="1" parent="1">
          <mxGeometry x="480" y="120" width="120" height="60" as="geometry" />
        </mxCell>
        <mxCell id="EPDN5h1PnaRbW-wHKBpo-3" value="Checking" style="rounded=1;whiteSpace=wrap;html=1;arcSize=24;fillColor=#ffffc0;strokeColor=#ff0000;shadow=0;comic=0;labelBackgroundColor=none;fontFamily=Verdana;fontSize=12;fontColor=#000000;align=center;" vertex="1" parent="1">
          <mxGeometry x="200" y="100" width="120" height="60" as="geometry" />
        </mxCell>
        <mxCell id="EPDN5h1PnaRbW-wHKBpo-4" value="Saved" style="rounded=1;whiteSpace=wrap;html=1;arcSize=24;fillColor=#ffffc0;strokeColor=#ff0000;shadow=0;comic=0;labelBackgroundColor=none;fontFamily=Verdana;fontSize=12;fontColor=#000000;align=center;" vertex="1" parent="1">
          <mxGeometry x="440" y="230" width="120" height="60" as="geometry" />
        </mxCell>
        <mxCell id="EPDN5h1PnaRbW-wHKBpo-6" value="" style="ellipse;html=1;shape=endState;fillColor=#000000;strokeColor=#ff0000;" vertex="1" parent="1">
          <mxGeometry x="675" y="245" width="30" height="30" as="geometry" />
        </mxCell>
        <mxCell id="EPDN5h1PnaRbW-wHKBpo-7" value="thông tin hợp lệ" style="text;html=1;align=center;verticalAlign=middle;whiteSpace=wrap;rounded=0;" vertex="1" parent="1">
          <mxGeometry x="270" y="180" width="60" height="30" as="geometry" />
        </mxCell>
        <mxCell id="EPDN5h1PnaRbW-wHKBpo-8" value="thông tin không hợp lệ" style="text;html=1;align=center;verticalAlign=middle;whiteSpace=wrap;rounded=0;" vertex="1" parent="1">
          <mxGeometry x="390" y="90" width="90" height="30" as="geometry" />
        </mxCell>
        <mxCell id="EPDN5h1PnaRbW-wHKBpo-9" value="Adding" style="rounded=1;whiteSpace=wrap;html=1;arcSize=24;fillColor=#ffffc0;strokeColor=#ff0000;shadow=0;comic=0;labelBackgroundColor=none;fontFamily=Verdana;fontSize=12;fontColor=#000000;align=center;" vertex="1" parent="1">
          <mxGeometry x="480" y="20" width="120" height="60" as="geometry" />
        </mxCell>
        <mxCell id="EPDN5h1PnaRbW-wHKBpo-10" style="edgeStyle=elbowEdgeStyle;html=1;entryX=1;entryY=0.75;labelBackgroundColor=none;endArrow=open;endSize=8;strokeColor=#ff0000;fontFamily=Verdana;fontSize=12;align=left;exitX=1;exitY=1;exitDx=0;exitDy=0;" edge="1" parent="1" source="EPDN5h1PnaRbW-wHKBpo-12">
          <mxGeometry relative="1" as="geometry">
            <mxPoint x="790" y="49.5" as="sourcePoint" />
            <mxPoint x="600" y="49.75" as="targetPoint" />
          </mxGeometry>
        </mxCell>
        <mxCell id="EPDN5h1PnaRbW-wHKBpo-11" style="edgeStyle=orthogonalEdgeStyle;html=1;labelBackgroundColor=none;endArrow=open;endSize=8;strokeColor=#ff0000;fontFamily=Verdana;fontSize=12;align=left;exitX=0;exitY=0.5;exitDx=0;exitDy=0;entryX=0.5;entryY=0;entryDx=0;entryDy=0;" edge="1" parent="1" source="EPDN5h1PnaRbW-wHKBpo-9" target="EPDN5h1PnaRbW-wHKBpo-3">
          <mxGeometry relative="1" as="geometry">
            <Array as="points">
              <mxPoint x="480" y="44" />
              <mxPoint x="260" y="44" />
            </Array>
            <mxPoint x="566.2" y="43.82000000000005" as="sourcePoint" />
            <mxPoint x="285" y="120" as="targetPoint" />
          </mxGeometry>
        </mxCell>
        <mxCell id="EPDN5h1PnaRbW-wHKBpo-12" value="chọn chức năng tạo tài khoản" style="text;html=1;align=center;verticalAlign=middle;whiteSpace=wrap;rounded=0;" vertex="1" parent="1">
          <mxGeometry x="630" y="20" width="120" height="30" as="geometry" />
        </mxCell>
        <mxCell id="EPDN5h1PnaRbW-wHKBpo-13" value="Nhấn &quot;Hủy&quot;" style="text;html=1;align=center;verticalAlign=middle;whiteSpace=wrap;rounded=0;" vertex="1" parent="1">
          <mxGeometry x="550" y="80" width="80" height="30" as="geometry" />
        </mxCell>
        <mxCell id="EPDN5h1PnaRbW-wHKBpo-14" style="edgeStyle=elbowEdgeStyle;html=1;exitX=0.5;exitY=1;labelBackgroundColor=none;endArrow=open;endSize=8;strokeColor=#ff0000;fontFamily=Verdana;fontSize=12;align=left;exitDx=0;exitDy=0;exitPerimeter=0;" edge="1" parent="1">
          <mxGeometry relative="1" as="geometry">
            <mxPoint x="602.5" y="140" as="sourcePoint" />
            <mxPoint x="690" y="240" as="targetPoint" />
            <Array as="points">
              <mxPoint x="690" y="160" />
              <mxPoint x="602" y="265" />
            </Array>
          </mxGeometry>
        </mxCell>
        <mxCell id="EPDN5h1PnaRbW-wHKBpo-15" style="edgeStyle=elbowEdgeStyle;html=1;exitX=0;exitY=0.5;labelBackgroundColor=none;endArrow=open;endSize=8;strokeColor=#ff0000;fontFamily=Verdana;fontSize=12;align=left;exitDx=0;exitDy=0;" edge="1" parent="1">
          <mxGeometry relative="1" as="geometry">
            <mxPoint x="259.5" y="160" as="sourcePoint" />
            <mxPoint x="260" y="230" as="targetPoint" />
            <Array as="points">
              <mxPoint x="259.5" y="220" />
              <mxPoint x="259.5" y="250" />
              <mxPoint x="209.5" y="350" />
            </Array>
          </mxGeometry>
        </mxCell>
        <mxCell id="EPDN5h1PnaRbW-wHKBpo-16" style="edgeStyle=elbowEdgeStyle;html=1;labelBackgroundColor=none;endArrow=open;endSize=8;strokeColor=#ff0000;fontFamily=Verdana;fontSize=12;align=left;entryX=0;entryY=0.75;entryDx=0;entryDy=0;" edge="1" parent="1" target="EPDN5h1PnaRbW-wHKBpo-9">
          <mxGeometry relative="1" as="geometry">
            <mxPoint x="320" y="130" as="sourcePoint" />
            <mxPoint x="440" y="130" as="targetPoint" />
            <Array as="points">
              <mxPoint x="379.5" y="235" />
            </Array>
          </mxGeometry>
        </mxCell>
        <mxCell id="EPDN5h1PnaRbW-wHKBpo-20" value="Nhấn &quot;Lưu&quot;" style="text;html=1;align=center;verticalAlign=middle;whiteSpace=wrap;rounded=0;" vertex="1" parent="1">
          <mxGeometry x="350" y="10" width="80" height="30" as="geometry" />
        </mxCell>
        <mxCell id="EPDN5h1PnaRbW-wHKBpo-21" style="edgeStyle=elbowEdgeStyle;html=1;labelBackgroundColor=none;endArrow=open;endSize=8;strokeColor=#ff0000;fontFamily=Verdana;fontSize=12;align=left;" edge="1" parent="1">
          <mxGeometry relative="1" as="geometry">
            <mxPoint x="549" y="80" as="sourcePoint" />
            <mxPoint x="549" y="120" as="targetPoint" />
          </mxGeometry>
        </mxCell>
        <mxCell id="EPDN5h1PnaRbW-wHKBpo-26" value="Confirming" style="rounded=1;whiteSpace=wrap;html=1;arcSize=24;fillColor=#ffffc0;strokeColor=#ff0000;shadow=0;comic=0;labelBackgroundColor=none;fontFamily=Verdana;fontSize=12;fontColor=#000000;align=center;" vertex="1" parent="1">
          <mxGeometry x="200" y="230" width="120" height="60" as="geometry" />
        </mxCell>
        <mxCell id="EPDN5h1PnaRbW-wHKBpo-33" style="edgeStyle=elbowEdgeStyle;html=1;labelBackgroundColor=none;endArrow=open;endSize=8;strokeColor=#ff0000;fontFamily=Verdana;fontSize=12;align=left;entryX=0;entryY=0.5;entryDx=0;entryDy=0;" edge="1" parent="1" target="EPDN5h1PnaRbW-wHKBpo-4">
          <mxGeometry relative="1" as="geometry">
            <mxPoint x="320" y="259.5" as="sourcePoint" />
            <mxPoint x="430" y="259.5" as="targetPoint" />
            <Array as="points">
              <mxPoint x="370" y="379.5" />
              <mxPoint x="370" y="409.5" />
              <mxPoint x="320" y="509.5" />
            </Array>
          </mxGeometry>
        </mxCell>
        <mxCell id="EPDN5h1PnaRbW-wHKBpo-34" style="edgeStyle=elbowEdgeStyle;html=1;labelBackgroundColor=none;endArrow=open;endSize=8;strokeColor=#ff0000;fontFamily=Verdana;fontSize=12;align=left;entryX=0.167;entryY=0.483;entryDx=0;entryDy=0;entryPerimeter=0;" edge="1" parent="1" target="EPDN5h1PnaRbW-wHKBpo-6">
          <mxGeometry relative="1" as="geometry">
            <mxPoint x="560" y="259.5" as="sourcePoint" />
            <mxPoint x="670" y="259.5" as="targetPoint" />
            <Array as="points">
              <mxPoint x="610" y="379.5" />
              <mxPoint x="610" y="409.5" />
              <mxPoint x="560" y="509.5" />
            </Array>
          </mxGeometry>
        </mxCell>
        <mxCell id="EPDN5h1PnaRbW-wHKBpo-35" style="edgeStyle=elbowEdgeStyle;html=1;labelBackgroundColor=none;endArrow=open;endSize=8;strokeColor=#ff0000;fontFamily=Verdana;fontSize=12;align=left;entryX=0;entryY=0.5;entryDx=0;entryDy=0;" edge="1" parent="1" target="EPDN5h1PnaRbW-wHKBpo-2">
          <mxGeometry relative="1" as="geometry">
            <mxPoint x="320" y="245" as="sourcePoint" />
            <mxPoint x="480" y="180" as="targetPoint" />
            <Array as="points">
              <mxPoint x="379.5" y="350" />
            </Array>
          </mxGeometry>
        </mxCell>
        <mxCell id="EPDN5h1PnaRbW-wHKBpo-37" value="Hủy" style="text;html=1;align=center;verticalAlign=middle;resizable=0;points=[];autosize=1;strokeColor=none;fillColor=none;" vertex="1" parent="1">
          <mxGeometry x="380" y="168" width="40" height="30" as="geometry" />
        </mxCell>
        <mxCell id="EPDN5h1PnaRbW-wHKBpo-38" value="Đồng ý" style="text;html=1;align=center;verticalAlign=middle;resizable=0;points=[];autosize=1;strokeColor=none;fillColor=none;" vertex="1" parent="1">
          <mxGeometry x="340" y="258" width="60" height="30" as="geometry" />
        </mxCell>
      </root>
    </mxGraphModel>
  </diagram>
</mxfile>
